<svg width="50" height="51" viewBox="0 0 50 51" fill="none" xmlns="http://www.w3.org/2000/svg">
<g filter="url(#filter0_d_6_3396)">
<path d="M18.723 1.3404C18.407 1.5774 18.17 2.8414 18.17 4.0264C18.17 7.1074 14.536 8.3714 11.85 6.1594L10.033 4.6584L7.031 7.5814C4.661 9.9514 4.187 10.8204 4.819 11.9264C5.214 12.7164 5.846 13.5064 6.241 13.8224C7.505 14.5334 5.53 18.9574 3.95 18.9574C0.711 18.9574 0 19.8264 0 23.6974C0 27.5684 0.711 28.4374 3.95 28.4374C4.819 28.4374 5.688 29.3064 6.162 30.6494C6.794 32.3874 6.636 33.2564 5.451 34.6784C3.713 36.7324 4.266 38.3914 7.584 40.9984C9.638 42.5784 11.771 42.3414 13.035 40.3664C13.272 39.8924 14.378 39.8924 15.8 40.3664C17.538 40.9984 18.17 41.7884 18.328 43.6844C18.565 46.2124 18.644 46.2124 22.91 46.2124C27.176 46.2124 27.255 46.2124 27.492 43.6844C27.65 41.7884 28.282 40.9984 30.02 40.3664C31.442 39.8924 32.548 39.8924 32.785 40.3664C33.101 40.7614 33.891 41.3934 34.681 41.7884C35.787 42.4204 36.656 41.9464 39.026 39.5764L41.949 36.5744L40.448 34.7574C39.184 33.2564 39.026 32.3874 39.658 30.6494C40.132 29.3064 41.001 28.4374 41.87 28.4374C45.109 28.4374 45.82 27.5684 45.82 23.6974C45.82 19.8264 45.109 18.9574 41.87 18.9574C40.29 18.9574 38.315 14.5334 39.579 13.8224C39.974 13.5064 40.606 12.7164 41.001 11.9264C41.633 10.8204 41.159 9.9514 38.789 7.5814L35.787 4.6584L33.97 6.1594C32.469 7.4234 31.6 7.5814 29.862 6.9494C28.519 6.4754 27.65 5.6064 27.65 4.7374C27.65 1.4984 26.781 0.787395 22.989 0.787395C20.935 0.787395 18.96 1.02439 18.723 1.3404ZM28.045 16.1134C28.993 16.7454 30.415 18.6414 31.205 20.2214C32.469 22.9074 32.469 23.5394 31.521 26.3834C28.44 34.9944 17.301 34.9154 14.299 26.3044C13.272 23.4604 13.351 22.9074 14.694 20.0634C17.301 14.7704 23.226 12.9534 28.045 16.1134Z" fill="white"/>
</g>
<defs>
<filter id="filter0_d_6_3396" x="0" y="0.787354" width="49.82" height="49.425" filterUnits="userSpaceOnUse" color-interpolation-filters="sRGB">
<feFlood flood-opacity="0" result="BackgroundImageFix"/>
<feColorMatrix in="SourceAlpha" type="matrix" values="0 0 0 0 0 0 0 0 0 0 0 0 0 0 0 0 0 0 127 0" result="hardAlpha"/>
<feOffset dx="4" dy="4"/>
<feComposite in2="hardAlpha" operator="out"/>
<feColorMatrix type="matrix" values="0 0 0 0 0.0980392 0 0 0 0 0.101961 0 0 0 0 0.109804 0 0 0 0.6 0"/>
<feBlend mode="normal" in2="BackgroundImageFix" result="effect1_dropShadow_6_3396"/>
<feBlend mode="normal" in="SourceGraphic" in2="effect1_dropShadow_6_3396" result="shape"/>
</filter>
</defs>
</svg>
