<svg width="62" height="62" viewBox="0 0 62 62" fill="none" xmlns="http://www.w3.org/2000/svg">
<g filter="url(#filter0_d_18_23)">
<path d="M24.1186 1.51016C24.099 1.51908 24.0854 1.52621 24.0766 1.53118L24.0571 1.55713L24.0003 1.5998C24.0053 1.59603 24.0051 1.59636 24.0005 1.60294C23.9882 1.62047 23.9449 1.68232 23.8875 1.82907C23.8174 2.00811 23.7494 2.25243 23.6903 2.54805C23.5724 3.13759 23.5 3.87951 23.5 4.59999C23.5 6.77688 22.2014 8.3334 20.4365 8.9357C18.6843 9.53365 16.505 9.18713 14.6821 7.68596L14.6816 7.68547L12.7274 6.07117L9.25355 9.45354C9.2528 9.4543 9.25204 9.45506 9.25128 9.45582C7.74509 10.9621 6.90306 11.9344 6.51949 12.679C6.3345 13.0381 6.27142 13.3169 6.27794 13.5584C6.28447 13.7998 6.36179 14.0503 6.53412 14.3519L6.54101 14.364L6.54721 14.3764C7.01408 15.3101 7.75212 16.2281 8.18616 16.5882C8.81907 16.9733 8.94428 17.7508 8.90216 18.4264C8.85664 19.1564 8.60936 20.0008 8.25659 20.7913C7.90272 21.5842 7.42593 22.3605 6.89165 22.9475C6.37722 23.5127 5.7197 24 5 24C2.94817 24 1.92344 24.2884 1.34705 24.9821C1.05239 25.3367 0.83575 25.8423 0.696135 26.5874C0.556262 27.3339 0.5 28.2849 0.5 29.5C0.5 30.7151 0.556262 31.6661 0.696135 32.4126C0.83575 33.1577 1.05239 33.6633 1.34705 34.0179C1.92344 34.7115 2.94817 35 5 35C5.72224 35 6.39212 35.36 6.94105 35.9089C7.49156 36.4594 7.95145 37.2277 8.2707 38.1313C8.68103 39.2603 8.86504 40.1842 8.70481 41.0873C8.54459 41.9904 8.05359 42.7967 7.28411 43.7201L7.28412 43.7201L7.28169 43.723C6.24473 44.9485 5.97563 45.9435 6.32387 46.978C6.69774 48.0886 7.81324 49.36 9.90682 51.0052C11.1336 51.9482 12.3313 52.3095 13.3681 52.1907C14.3894 52.0737 15.3359 51.4819 16.0671 50.3487C16.2184 50.0673 16.4764 49.8942 16.7459 49.7939C17.0223 49.691 17.3461 49.65 17.6875 49.65C18.3719 49.65 19.2278 49.8155 20.1581 50.1257L20.1582 50.1255L20.1709 50.1301C21.3087 50.5439 22.1622 51.0358 22.7463 51.7951C23.3302 52.5542 23.5943 53.5146 23.698 54.7557C23.7744 55.5702 23.8338 56.1139 23.9521 56.5054C24.0603 56.8638 24.2012 57.0386 24.4259 57.1605C24.6923 57.305 25.1255 57.4016 25.8901 57.451C26.6435 57.4997 27.643 57.5 29 57.5C30.357 57.5 31.3565 57.4997 32.1099 57.451C32.8745 57.4016 33.3077 57.305 33.5741 57.1605C33.7988 57.0386 33.9397 56.8638 34.0479 56.5054C34.1662 56.1139 34.2256 55.5702 34.302 54.7557C34.4057 53.5146 34.6698 52.5542 35.2537 51.7951C35.8378 51.0358 36.6913 50.5439 37.8291 50.1301L37.8291 50.1299L37.8419 50.1257C38.7722 49.8155 39.6281 49.65 40.3125 49.65C40.6539 49.65 40.9777 49.691 41.2541 49.7939C41.5142 49.8907 41.7636 50.0553 41.9167 50.3197C42.2802 50.7545 43.1941 51.488 44.1236 51.9528L44.136 51.959L44.1481 51.9659C44.4497 52.1382 44.7002 52.2155 44.9416 52.2221C45.1831 52.2286 45.4619 52.1655 45.821 51.9805C46.5656 51.5969 47.5379 50.7549 49.0442 49.2487C49.0449 49.248 49.0457 49.2472 49.0465 49.2464L52.4288 45.7726L50.8175 43.8221C50.8171 43.8215 50.8167 43.821 50.8162 43.8205C49.9998 42.8508 49.4831 42.0208 49.3088 41.1061C49.1338 40.1873 49.3189 39.2605 49.7293 38.1313C50.0486 37.2277 50.5084 36.4594 51.059 35.9089C51.6079 35.36 52.2778 35 53 35C55.0518 35 56.0766 34.7115 56.653 34.0179C56.9476 33.6633 57.1643 33.1577 57.3039 32.4126C57.4437 31.6661 57.5 30.7151 57.5 29.5C57.5 28.2849 57.4437 27.3339 57.3039 26.5874C57.1643 25.8423 56.9476 25.3367 56.653 24.9821C56.0766 24.2884 55.0518 24 53 24C52.2803 24 51.6228 23.5127 51.1084 22.9475C50.5741 22.3605 50.0973 21.5842 49.7434 20.7913C49.3906 20.0008 49.1434 19.1564 49.0978 18.4264C49.0557 17.7508 49.1809 16.9733 49.8138 16.5882C50.2479 16.2281 50.9859 15.3101 51.4528 14.3764L51.459 14.364L51.4659 14.3519C51.6382 14.0503 51.7155 13.7998 51.7221 13.5584C51.7286 13.3169 51.6655 13.0381 51.4805 12.679C51.097 11.9344 50.2549 10.9621 48.7487 9.45582C48.748 9.45506 48.7472 9.4543 48.7465 9.45354L45.2726 6.07117L43.3221 7.68245C43.3216 7.68288 43.3211 7.68331 43.3205 7.68374C42.3508 8.50014 41.5208 9.01692 40.6061 9.19116C39.6872 9.36617 38.7604 9.18108 37.6313 8.77067C36.7276 8.45142 35.9594 7.99154 35.409 7.44104C34.86 6.89211 34.5 6.22223 34.5 5.49999C34.5 3.44825 34.2117 2.42125 33.5278 1.84481C33.1792 1.55098 32.6831 1.33507 31.9532 1.19582C31.2215 1.05624 30.2898 0.999992 29.1 0.999992C27.8167 0.999992 26.5631 1.07416 25.6003 1.19603C25.1173 1.25717 24.72 1.32878 24.4332 1.40506C24.2891 1.4434 24.1859 1.47955 24.1186 1.51016ZM35.7742 19.4819L35.7774 19.484C36.4486 19.9315 37.2394 20.7861 37.9725 21.7467C38.7139 22.7182 39.4314 23.8447 39.9472 24.8764L39.9473 24.8763L39.9524 24.8871C40.7513 26.5848 41.1943 27.7164 41.2495 28.9018C41.3044 30.0827 40.9714 31.267 40.3743 33.0581L40.3745 33.0581L40.3708 33.0684C38.3495 38.7177 33.66 41.5512 28.9597 41.525C24.2608 41.4988 19.5989 38.6149 17.6288 32.9673C16.9814 31.1743 16.643 30.0076 16.7262 28.8152C16.8088 27.631 17.3049 26.4716 18.1479 24.6865L18.1478 24.6865L18.1515 24.6791C21.5733 17.7318 29.4027 15.3038 35.7742 19.4819Z" fill="#191A1C" stroke="#5865F2"/>
</g>
<defs>
<filter id="filter0_d_18_23" x="0" y="0.5" width="62" height="61.5" filterUnits="userSpaceOnUse" color-interpolation-filters="sRGB">
<feFlood flood-opacity="0" result="BackgroundImageFix"/>
<feColorMatrix in="SourceAlpha" type="matrix" values="0 0 0 0 0 0 0 0 0 0 0 0 0 0 0 0 0 0 127 0" result="hardAlpha"/>
<feOffset dx="4" dy="4"/>
<feComposite in2="hardAlpha" operator="out"/>
<feColorMatrix type="matrix" values="0 0 0 0 0.0980392 0 0 0 0 0.101961 0 0 0 0 0.109804 0 0 0 0.6 0"/>
<feBlend mode="normal" in2="BackgroundImageFix" result="effect1_dropShadow_18_23"/>
<feBlend mode="normal" in="SourceGraphic" in2="effect1_dropShadow_18_23" result="shape"/>
</filter>
</defs>
</svg>
