<svg width="56" height="56" viewBox="0 0 56 56" fill="none" xmlns="http://www.w3.org/2000/svg"> <path d="M18.0843 11.1954C17.9101 11.3696 17.7778 11.5796 17.6674 11.8098L17.655 11.7974L0.208403 51.0988L0.225514 51.1159C-0.0980313 51.7427 0.443285 53.0183 1.55236 54.1289C2.66144 55.238 3.93695 55.7793 4.56382 55.4557L4.57937 55.4713L43.8808 38.0232L43.8683 38.0092C44.097 37.9003 44.307 37.7681 44.4828 37.5908C46.9125 35.1611 42.9724 27.2824 35.6848 19.9933C28.3942 12.7042 20.5155 8.76567 18.0843 11.1954Z" fill="#DD2E44"/> <path d="M20.2215 18.2138L0.647056 50.111L0.208403 51.0988L0.225514 51.1159C-0.0980313 51.7427 0.443285 53.0182 1.55236 54.1289C1.91324 54.4898 2.28811 54.7635 2.65521 54.9953L26.4436 25.9913L20.2215 18.2138Z" fill="#EA596E"/> <path d="M35.7954 19.872C43.0596 27.1393 47.093 34.8857 44.8002 37.1754C42.5089 39.4682 34.7625 35.4363 27.4936 28.1721C20.2279 20.9048 16.196 13.1553 18.4873 10.864C20.7801 8.57276 28.5265 12.6046 35.7954 19.872Z" fill="#A0041E"/> <path d="M28.9168 20.7166C28.6072 20.967 28.2028 21.0977 27.775 21.051C26.4249 20.9048 25.2893 20.4351 24.4945 19.6931C23.6529 18.9075 23.2376 17.8529 23.3512 16.7967C23.5503 14.9426 25.4107 13.2408 28.5823 13.5831C29.8159 13.7153 30.3665 13.3186 30.3852 13.1288C30.407 12.9406 29.9543 12.4351 28.7208 12.3013C27.3706 12.1551 26.2351 11.6853 25.4387 10.9434C24.5971 10.1578 24.1803 9.1032 24.2954 8.04701C24.4976 6.19284 26.3564 4.49112 29.525 4.83489C30.4241 4.93133 30.8985 4.74622 31.0992 4.62645C31.2594 4.52845 31.3231 4.43512 31.3294 4.38068C31.348 4.19246 30.9016 3.68692 29.665 3.55315C28.811 3.45982 28.1919 2.69451 28.2868 1.83898C28.3786 0.985011 29.1423 0.367476 29.9994 0.460806C33.168 0.801462 34.6239 2.8594 34.4233 4.71511C34.2211 6.57239 32.3622 8.271 29.1905 7.93034C28.2915 7.83235 27.8217 8.01901 27.6195 8.13878C27.4593 8.23522 27.3939 8.33011 27.3877 8.383C27.3675 8.57277 27.817 9.07675 29.0537 9.21053C32.2222 9.55274 33.6782 11.6091 33.4775 13.4648C33.2769 15.319 31.418 17.0207 28.2479 16.677C27.3488 16.5805 26.876 16.7672 26.6737 16.8854C26.512 16.9849 26.4497 17.0783 26.4435 17.1312C26.4233 17.3194 26.8728 17.8249 28.1079 17.9587C28.9603 18.052 29.581 18.8189 29.4861 19.6729C29.4425 20.0991 29.2263 20.4677 28.9168 20.7166Z" fill="#AA8DD8"/> <path d="M47.6935 35.1019C50.7625 34.2355 52.8795 35.6043 53.3835 37.4009C53.8875 39.196 52.7955 41.4686 49.7281 42.3319C48.5303 42.6679 48.171 43.2403 48.2192 43.4223C48.2721 43.6058 48.8803 43.9076 50.075 43.5701C53.1424 42.7068 55.2595 44.0756 55.7634 45.8707C56.2705 47.6673 55.1755 49.9368 52.1065 50.8016C50.9103 51.1376 50.5494 51.7116 50.6023 51.8936C50.6536 52.0756 51.2603 52.3773 52.4564 52.0414C53.2809 51.8096 54.1426 52.2902 54.3744 53.1162C54.6046 53.9437 54.1239 54.8024 53.2964 55.0357C50.2305 55.899 48.1119 54.5333 47.6048 52.7351C47.1008 50.9401 48.1944 48.6706 51.2649 47.8057C52.4627 47.4682 52.822 46.8973 52.7691 46.7138C52.7193 46.5318 52.1127 46.2284 50.9181 46.5644C47.8475 47.4293 45.732 46.0635 45.2265 44.2638C44.7209 42.4688 45.8144 40.1993 48.8834 39.3329C50.0781 38.9984 50.4374 38.4229 50.3876 38.2425C50.3347 38.0589 49.7296 37.7571 48.5335 38.0931C47.7059 38.3265 46.8488 37.8443 46.6155 37.0183C46.3838 36.1939 46.866 35.3352 47.6935 35.1019Z" fill="#77B255"/> <path d="M35.7781 30.9067C35.3208 30.9067 34.8697 30.706 34.5617 30.3234C34.0251 29.6514 34.1355 28.673 34.8044 28.1364C35.1435 27.8641 43.2321 21.5115 54.6635 23.1463C55.5144 23.2676 56.1055 24.0547 55.9841 24.9056C55.8628 25.7549 55.0819 26.3522 54.2233 26.2246C44.1234 24.7905 36.8219 30.5085 36.7503 30.5661C36.461 30.7963 36.1188 30.9067 35.7781 30.9067Z" fill="#AA8DD8"/> <path d="M8.95038 24.4358C8.80261 24.4358 8.65172 24.414 8.5024 24.3704C7.67953 24.1231 7.21288 23.2567 7.46021 22.4338C9.22259 16.5649 10.8201 7.19921 8.85705 4.75707C8.63772 4.48019 8.3064 4.20797 7.54732 4.26553C6.08825 4.37752 6.22669 7.45587 6.22825 7.48698C6.29358 8.34406 5.6496 9.0907 4.79407 9.15448C3.92454 9.20737 3.19034 8.57583 3.12657 7.71875C2.96635 5.57371 3.63366 1.44228 7.31399 1.16385C8.9566 1.03941 10.3208 1.61028 11.2836 2.80802C14.9717 7.39831 11.2276 20.7057 10.4406 23.3282C10.2383 24.0018 9.61925 24.4358 8.95038 24.4358Z" fill="#77B255"/> <path d="M39.6654 16.6583C40.954 16.6583 41.9987 15.6136 41.9987 14.325C41.9987 13.0364 40.954 11.9918 39.6654 11.9918C38.3768 11.9918 37.3322 13.0364 37.3322 14.325C37.3322 15.6136 38.3768 16.6583 39.6654 16.6583Z" fill="#5C913B"/> <path d="M3.11101 30.6578C4.82918 30.6578 6.22202 29.265 6.22202 27.5468C6.22202 25.8286 4.82918 24.4358 3.11101 24.4358C1.39285 24.4358 0 25.8286 0 27.5468C0 29.265 1.39285 30.6578 3.11101 30.6578Z" fill="#9266CC"/> <path d="M50.554 32.2134C51.8426 32.2134 52.8872 31.1688 52.8872 29.8801C52.8872 28.5915 51.8426 27.5469 50.554 27.5469C49.2653 27.5469 48.2207 28.5915 48.2207 29.8801C48.2207 31.1688 49.2653 32.2134 50.554 32.2134Z" fill="#5C913B"/> <path d="M36.5545 50.8794C37.8431 50.8794 38.8877 49.8348 38.8877 48.5461C38.8877 47.2575 37.8431 46.2129 36.5545 46.2129C35.2658 46.2129 34.2212 47.2575 34.2212 48.5461C34.2212 49.8348 35.2658 50.8794 36.5545 50.8794Z" fill="#5C913B"/> <path d="M43.5541 8.88078C45.2723 8.88078 46.6651 7.48793 46.6651 5.76976C46.6651 4.0516 45.2723 2.65875 43.5541 2.65875C41.836 2.65875 40.4431 4.0516 40.4431 5.76976C40.4431 7.48793 41.836 8.88078 43.5541 8.88078Z" fill="#FFCC4D"/> <path d="M50.554 15.1028C51.8426 15.1028 52.8872 14.0582 52.8872 12.7695C52.8872 11.4809 51.8426 10.4363 50.554 10.4363C49.2653 10.4363 48.2207 11.4809 48.2207 12.7695C48.2207 14.0582 49.2653 15.1028 50.554 15.1028Z" fill="#FFCC4D"/> <path d="M45.8875 21.3248C47.1761 21.3248 48.2207 20.2802 48.2207 18.9916C48.2207 17.703 47.1761 16.6583 45.8875 16.6583C44.5988 16.6583 43.5542 17.703 43.5542 18.9916C43.5542 20.2802 44.5988 21.3248 45.8875 21.3248Z" fill="#FFCC4D"/> <path d="M11.6663 38.4354C12.9549 38.4354 13.9995 37.3907 13.9995 36.1021C13.9995 34.8135 12.9549 33.7689 11.6663 33.7689C10.3776 33.7689 9.33301 34.8135 9.33301 36.1021C9.33301 37.3907 10.3776 38.4354 11.6663 38.4354Z" fill="#FFCC4D"/> </svg>