<svg width="56" height="56" viewBox="0 0 56 56" fill="none" xmlns="http://www.w3.org/2000/svg">
<path d="M49.4118 1.64709H6.58827C3.85909 1.64709 1.64709 3.85909 1.64709 6.58827V49.4118C1.64709 52.141 3.85909 54.353 6.58827 54.353H49.4118C52.141 54.353 54.353 52.141 54.353 49.4118V6.58827C54.353 3.85909 52.141 1.64709 49.4118 1.64709Z" fill="#CCD6DD"/>
<path d="M49.4118 0H6.58824C2.94988 0 0 2.94988 0 6.58824V49.4118C0 53.0501 2.94988 56 6.58824 56H49.4118C53.0501 56 56 53.0501 56 49.4118V6.58824C56 2.94988 53.0501 0 49.4118 0ZM49.4118 3.29412C51.2285 3.29412 52.7059 4.77153 52.7059 6.58824V13.1765H42.8235V3.29412H49.4118ZM42.8235 29.6471H52.7059V39.5294H42.8235V29.6471ZM42.8235 26.3529V16.4706H52.7059V26.3529H42.8235ZM39.5294 3.29412V13.1765H29.6471V3.29412H39.5294ZM29.6471 16.4706H39.5294V26.3529H29.6471V16.4706ZM29.6471 29.6471H39.5294V39.5294H29.6471V29.6471ZM26.3529 3.29412V13.1765H16.4706V3.29412H26.3529ZM16.4706 16.4706H26.3529V26.3529H16.4706V16.4706ZM16.4706 29.6471H26.3529V39.5294H16.4706V29.6471ZM3.29412 6.58824C3.29412 4.77153 4.77153 3.29412 6.58824 3.29412H13.1765V13.1765H3.29412V6.58824ZM3.29412 16.4706H13.1765V26.3529H3.29412V16.4706ZM3.29412 29.6471H13.1765V39.5294H3.29412V29.6471ZM6.58824 52.7059C4.77153 52.7059 3.29412 51.2285 3.29412 49.4118V42.8235H13.1765V52.7059H6.58824ZM16.4706 52.7059V42.8235H26.3529V52.7059H16.4706ZM29.6471 52.7059V42.8235H39.5294V52.7059H29.6471ZM49.4118 52.7059H42.8235V42.8235H52.7059V49.4118C52.7059 51.2285 51.2285 52.7059 49.4118 52.7059Z" fill="#E1E8ED"/>
<path d="M19.7647 52.7059H9.88232V24.7059C9.88232 22.8875 11.3581 21.4117 13.1764 21.4117H16.4706C18.2889 21.4117 19.7647 22.8875 19.7647 24.7059V52.7059Z" fill="#5C913B"/>
<path d="M46.1177 52.7059H36.2354V13.1764C36.2354 11.3581 37.7111 9.88232 39.5295 9.88232H42.8236C44.6419 9.88232 46.1177 11.3581 46.1177 13.1764V52.7059Z" fill="#3B94D9"/>
<path d="M32.9412 52.7059H23.0588V36.2353C23.0588 34.4169 24.5346 32.9412 26.353 32.9412H29.6471C31.4654 32.9412 32.9412 34.4169 32.9412 36.2353V52.7059Z" fill="#DD2E44"/>
</svg>
