<svg width="56" height="56" viewBox="0 0 56 56" fill="none" xmlns="http://www.w3.org/2000/svg">
<path d="M6.10231 36.6153C5.77254 37.5095 4.86098 37.9295 4.06765 37.5585C3.27431 37.1858 2.89943 36.162 3.2292 35.2695L10.4112 13.328C10.741 12.4355 11.6525 12.0138 12.4443 12.3848C13.2376 12.7575 13.6125 13.7813 13.2828 14.6738L6.10231 36.6153Z" fill="#66757F"/>
<path d="M21.6579 35.2695C21.9877 36.162 21.6128 37.1857 20.8195 37.5585C20.0261 37.9295 19.1161 37.5095 18.7848 36.6152L11.6059 14.6737C11.2761 13.7812 11.651 12.7575 12.4444 12.3847C13.2377 12.0137 14.1477 12.4355 14.479 13.328L21.6579 35.2695ZM37.215 36.6152C36.8837 37.5095 35.9721 37.9295 35.1788 37.5585C34.3855 37.1857 34.0121 36.162 34.3419 35.2695L41.5224 13.3262C41.8521 12.4355 42.7621 12.0137 43.5555 12.3847C44.3488 12.7575 44.7252 13.7812 44.3939 14.6737L37.215 36.6152Z" fill="#66757F"/>
<path d="M52.7692 35.2695C53.0989 36.162 52.7256 37.1858 51.9323 37.5585C51.1389 37.9295 50.2274 37.5095 49.896 36.6153L42.7172 14.6738C42.3858 13.7813 42.7623 12.7575 43.5556 12.3848C44.3489 12.0138 45.2589 12.4355 45.5887 13.328L52.7692 35.2695Z" fill="#66757F"/>
<path d="M23.1109 35H1.778C0.796444 35 0 35.8943 0 37.0003C0 41.4173 5.572 44.9995 12.4444 44.9995C19.3169 44.9995 24.8889 41.4173 24.8889 37.0003C24.8889 35.8943 24.0924 35 23.1109 35ZM37.3333 56H18.6667C17.808 56 17.1111 55.2178 17.1111 54.25C17.1111 50.3843 21.9862 47.25 28 47.25C34.0138 47.25 38.8889 50.3843 38.8889 54.25C38.8889 55.2178 38.1936 56 37.3333 56ZM54.222 35H32.8891C31.906 35 31.1111 35.8943 31.1111 37.0003C31.1111 41.4173 36.6816 44.9995 43.5556 44.9995C50.4296 44.9995 56 41.4173 56 37.0003C56 35.8943 55.2051 35 54.222 35Z" fill="#FFAC33"/>
<path d="M29.5556 1.75C29.5556 0.784 28.8602 0 28 0C27.1413 0 26.4445 0.784 26.4445 1.75V49C26.4445 49.9678 27.1413 50.75 28 50.75C28.8602 50.75 29.5556 49.9678 29.5556 49V1.75Z" fill="#FFAC33"/>
<path d="M28 7C29.7182 7 31.1111 5.433 31.1111 3.5C31.1111 1.567 29.7182 0 28 0C26.2818 0 24.8889 1.567 24.8889 3.5C24.8889 5.433 26.2818 7 28 7Z" fill="#FFAC33"/>
<path d="M12.4445 17.5C14.1627 17.5 15.5556 15.933 15.5556 14C15.5556 12.067 14.1627 10.5 12.4445 10.5C10.7263 10.5 9.33337 12.067 9.33337 14C9.33337 15.933 10.7263 17.5 12.4445 17.5Z" fill="#FFAC33"/>
<path d="M43.5556 17.5C45.2738 17.5 46.6667 15.933 46.6667 14C46.6667 12.067 45.2738 10.5 43.5556 10.5C41.8373 10.5 40.4445 12.067 40.4445 14C40.4445 15.933 41.8373 17.5 43.5556 17.5Z" fill="#FFAC33"/>
<path d="M43.5556 14C43.5556 15.932 43.5556 14 28 14C12.4445 14 12.4445 15.932 12.4445 14C12.4445 12.068 17.1111 7.00003 28 7.00003C38.8889 7.00003 43.5556 12.068 43.5556 14Z" fill="#FFAC33"/>
</svg>
